<svg width="14" height="14" viewBox="0 0 14 14" fill="none" xmlns="http://www.w3.org/2000/svg">
<mask id="path-1-inside-1_36787_66" fill="white">
<path fill-rule="evenodd" clip-rule="evenodd" d="M3 1.5C3 2.32843 2.32843 3 1.5 3C0.671573 3 0 2.32843 0 1.5C0 0.671573 0.671573 0 1.5 0C2.32843 0 3 0.671573 3 1.5ZM4.75 0.75H13.25C13.664 0.75 14 1.086 14 1.5C14 1.914 13.664 2.25 13.25 2.25H4.75C4.336 2.25 4 1.914 4 1.5C4 1.086 4.336 0.75 4.75 0.75ZM1.5 8.5C2.32843 8.5 3 7.82843 3 7C3 6.17157 2.32843 5.5 1.5 5.5C0.671573 5.5 0 6.17157 0 7C0 7.82843 0.671573 8.5 1.5 8.5ZM4.75 6.25H13.25C13.664 6.25 14 6.586 14 7C14 7.414 13.664 7.75 13.25 7.75H4.75C4.336 7.75 4 7.414 4 7C4 6.586 4.336 6.25 4.75 6.25ZM1.5 14C2.32843 14 3 13.3284 3 12.5C3 11.6716 2.32843 11 1.5 11C0.671573 11 0 11.6716 0 12.5C0 13.3284 0.671573 14 1.5 14ZM4.75 11.75H13.25C13.664 11.75 14 12.086 14 12.5C14 12.914 13.664 13.25 13.25 13.25H4.75C4.336 13.25 4 12.914 4 12.5C4 12.086 4.336 11.75 4.75 11.75Z"/>
</mask>
<path d="M1.5 4C2.88071 4 4 2.88071 4 1.5H2C2 1.77614 1.77614 2 1.5 2V4ZM-1 1.5C-1 2.88071 0.119288 4 1.5 4V2C1.22386 2 1 1.77614 1 1.5H-1ZM1.5 -1C0.119288 -1 -1 0.119288 -1 1.5H1C1 1.22386 1.22386 1 1.5 1V-1ZM4 1.5C4 0.119288 2.88071 -1 1.5 -1V1C1.77614 1 2 1.22386 2 1.5H4ZM13.25 -0.25H4.75V1.75H13.25V-0.25ZM15 1.5C15 0.533716 14.2163 -0.25 13.25 -0.25V1.75C13.1117 1.75 13 1.63828 13 1.5H15ZM13.25 3.25C14.2163 3.25 15 2.46628 15 1.5H13C13 1.36172 13.1117 1.25 13.25 1.25V3.25ZM4.75 3.25H13.25V1.25H4.75V3.25ZM3 1.5C3 2.46628 3.78372 3.25 4.75 3.25V1.25C4.88828 1.25 5 1.36172 5 1.5H3ZM4.75 -0.25C3.78372 -0.25 3 0.533715 3 1.5H5C5 1.63828 4.88828 1.75 4.75 1.75V-0.25ZM2 7C2 7.27614 1.77614 7.5 1.5 7.5V9.5C2.88071 9.5 4 8.38071 4 7H2ZM1.5 6.5C1.77614 6.5 2 6.72386 2 7H4C4 5.61929 2.88071 4.5 1.5 4.5V6.5ZM1 7C1 6.72386 1.22386 6.5 1.5 6.5V4.5C0.119288 4.5 -1 5.61929 -1 7H1ZM1.5 7.5C1.22386 7.5 1 7.27614 1 7H-1C-1 8.38071 0.119288 9.5 1.5 9.5V7.5ZM13.25 5.25H4.75V7.25H13.25V5.25ZM15 7C15 6.03372 14.2163 5.25 13.25 5.25V7.25C13.1117 7.25 13 7.13828 13 7H15ZM13.25 8.75C14.2163 8.75 15 7.96628 15 7H13C13 6.86171 13.1117 6.75 13.25 6.75V8.75ZM4.75 8.75H13.25V6.75H4.75V8.75ZM3 7C3 7.96628 3.78372 8.75 4.75 8.75V6.75C4.88828 6.75 5 6.86171 5 7H3ZM4.75 5.25C3.78372 5.25 3 6.03372 3 7H5C5 7.13828 4.88828 7.25 4.75 7.25V5.25ZM2 12.5C2 12.7761 1.77614 13 1.5 13V15C2.88071 15 4 13.8807 4 12.5H2ZM1.5 12C1.77614 12 2 12.2239 2 12.5H4C4 11.1193 2.88071 10 1.5 10V12ZM1 12.5C1 12.2239 1.22386 12 1.5 12V10C0.119288 10 -1 11.1193 -1 12.5H1ZM1.5 13C1.22386 13 1 12.7761 1 12.5H-1C-1 13.8807 0.119288 15 1.5 15V13ZM13.25 10.75H4.75V12.75H13.25V10.75ZM15 12.5C15 11.5337 14.2163 10.75 13.25 10.75V12.75C13.1117 12.75 13 12.6383 13 12.5H15ZM13.25 14.25C14.2163 14.25 15 13.4663 15 12.5H13C13 12.3617 13.1117 12.25 13.25 12.25V14.25ZM4.75 14.25H13.25V12.25H4.75V14.25ZM3 12.5C3 13.4663 3.78371 14.25 4.75 14.25V12.25C4.88829 12.25 5 12.3617 5 12.5H3ZM4.75 10.75C3.78371 10.75 3 11.5337 3 12.5H5C5 12.6383 4.88829 12.75 4.75 12.75V10.75Z" fill="#838691" mask="url(#path-1-inside-1_36787_66)"/>
</svg>
