<svg width="20" height="21" viewBox="0 0 20 21" fill="none" xmlns="http://www.w3.org/2000/svg">
<path d="M19.3747 0H18.1249V1.24981H19.3747V0Z" fill="currentColor"/>
<path d="M15.0015 8.75318V6.24906L15.0022 6.24981H17.5011V8.74944H20V9.54171C20 10.4575 19.9221 11.5426 19.7431 12.3948C19.6428 12.871 19.4908 13.3443 19.3126 13.7989C19.1298 14.2639 18.9194 14.7094 18.6903 15.1086C18.3915 15.6298 18.0455 16.13 17.6442 16.6003L17.6229 16.6251L17.588 16.666C17.4916 16.7791 17.3962 16.891 17.2915 17.0001C17.1694 17.1304 17.0428 17.254 16.914 17.3776C15.3145 18.9179 13.2305 19.8802 11.0514 20.1011C10.7893 20.128 10.2628 20.1558 10 20.1558C9.73641 20.155 9.21072 20.128 8.94863 20.1011C6.7695 19.8802 4.68549 18.9172 3.08596 17.3776C2.95716 17.254 2.83062 17.1304 2.70855 17.0001C2.59856 16.8862 2.49943 16.7694 2.39916 16.6513L2.39883 16.6509L2.35584 16.6003C1.95446 16.13 1.6085 15.6298 1.30972 15.1086C1.08057 14.7087 0.870142 14.2639 0.687429 13.7989C0.509214 13.3443 0.357198 12.871 0.256847 12.3948C0.0778822 11.5419 0 10.4575 0 9.54171V0.156507H4.9985V8.75318C4.9985 8.75318 4.9985 9.41216 5.00673 9.62782L5.00863 9.67814V9.67845C5.01914 9.95738 5.02943 10.2306 5.05841 10.5025C5.14077 11.2745 5.31151 12.0069 5.66346 12.6262C5.76531 12.8051 5.86866 12.9789 5.99221 13.1436C6.74405 14.1463 7.88828 14.8989 9.31555 15.1086C9.48554 15.1333 9.82851 15.155 10 15.155C10.1715 15.155 10.5144 15.1333 10.6844 15.1086C12.1117 14.8989 13.256 14.1463 14.0078 13.1436C14.1321 12.9789 14.2347 12.8051 14.3365 12.6262C14.6885 12.0069 14.8592 11.2745 14.9416 10.5025C14.9706 10.2301 14.9809 9.95635 14.9914 9.67686L14.9933 9.62782C15.0015 9.41216 15.0015 8.75318 15.0015 8.75318Z" fill="currentColor"/>
<path d="M15.6253 1.87509H17.5004L17.5004 3.74944H20V6.24906H17.5004L17.5004 3.75019H15.6253V1.87509Z" fill="currentColor"/>
</svg>
